<svg id="Ebene_1" data-name="Ebene 1" xmlns="http://www.w3.org/2000/svg" viewBox="0 0 58.28 73.46"><defs><style>.cls-1{opacity:0.2;}.cls-2{fill:#666;}.cls-3{fill:none;}.cls-4{fill:#2e3a40;opacity:0.81;isolation:isolate;}</style></defs><title>access-denied</title><g id="Gruppe_459" data-name="Gruppe 459" class="cls-1"><path id="Pfad_6359" data-name="Pfad 6359" class="cls-2" d="M14,6A5,5,0,0,0,9,10.8l0,38.77a5,5,0,0,0,5,4.85H44.39a5,5,0,0,0,5.06-4.85V20.49L34.26,6Zm17.74,17V9.59L45.66,22.92Z" transform="translate(-4.95 -3.95)"/><path id="Pfad_6360" data-name="Pfad 6360" class="cls-3" d="M5,4h48.5V56.42H5Z" transform="translate(-4.95 -3.95)"/></g><path id="ic_https_24px" data-name="ic https 24px" class="cls-4" d="M58.94,47.43H56.8V43.14a10.71,10.71,0,1,0-21.42,0v4.29H33.24A4.3,4.3,0,0,0,29,51.71V73.13a4.3,4.3,0,0,0,4.29,4.28h25.7a4.3,4.3,0,0,0,4.29-4.28V51.71A4.3,4.3,0,0,0,58.94,47.43ZM46.09,66.7a4.29,4.29,0,1,1,4.28-4.28A4.28,4.28,0,0,1,46.09,66.7Zm6.64-19.27H39.45V43.14a6.64,6.64,0,1,1,13.28,0h0Z" transform="translate(-4.95 -3.95)"/></svg>