<svg xmlns="http://www.w3.org/2000/svg"  viewBox="0 0 100 100" width="100px" height="100px"><path fill="#78a2d2" d="M69,82H31c-7.18,0-13-5.82-13-13V31c0-7.18,5.82-13,13-13h38c7.18,0,13,5.82,13,13v38	C82,76.18,76.18,82,69,82z"/><path fill="#fff" d="M66.5,78h-33C27.149,78,22,72.851,22,66.5v-33C22,27.149,27.149,22,33.5,22h33	C72.851,22,78,27.149,78,33.5v33C78,72.851,72.851,78,66.5,78z"/><path fill="#1f212b" d="M69,83H31c-7.72,0-14-6.28-14-14V31c0-7.72,6.28-14,14-14h38c7.72,0,14,6.28,14,14v38	C83,76.72,76.72,83,69,83z M31,19c-6.617,0-12,5.383-12,12v38c0,6.617,5.383,12,12,12h38c6.617,0,12-5.383,12-12V31	c0-6.617-5.383-12-12-12H31z"/><path fill="#1f212b" d="M66.5,78h-33C27.159,78,22,72.841,22,66.5v-33C22,27.159,27.159,22,33.5,22h33	c0.353,0,0.7,0.021,1.045,0.053c0.275,0.025,0.478,0.268,0.453,0.543c-0.025,0.275-0.27,0.479-0.543,0.453	C67.14,23.021,66.823,23,66.5,23h-33C27.71,23,23,27.71,23,33.5v33C23,72.29,27.71,77,33.5,77h33C72.29,77,77,72.29,77,66.5v-17	c0-0.276,0.224-0.5,0.5-0.5s0.5,0.224,0.5,0.5v17C78,72.841,72.841,78,66.5,78z"/><path fill="#1f212b" d="M77.5,40c-0.276,0-0.5-0.224-0.5-0.5v-2c0-0.276,0.224-0.5,0.5-0.5s0.5,0.224,0.5,0.5v2	C78,39.776,77.776,40,77.5,40z"/><path fill="#1f212b" d="M77.5,47c-0.276,0-0.5-0.224-0.5-0.5v-4c0-0.276,0.224-0.5,0.5-0.5s0.5,0.224,0.5,0.5v4	C78,46.776,77.776,47,77.5,47z"/><circle cx="44" cy="44" r="12.5" fill="#f9e65c"/><path fill="#78a2d2" d="M44,57c-7.168,0-13-5.832-13-13s5.832-13,13-13s13,5.832,13,13S51.168,57,44,57z M44,32	c-6.617,0-12,5.383-12,12s5.383,12,12,12s12-5.383,12-12S50.617,32,44,32z"/><path fill="#1f212b" d="M44,57c-7.168,0-13-5.832-13-13s5.832-13,13-13s13,5.832,13,13S51.168,57,44,57z M44,32	c-6.617,0-12,5.383-12,12s5.383,12,12,12s12-5.383,12-12S50.617,32,44,32z"/><circle cx="44" cy="44" r="9.5" fill="#c7dff1"/><path fill="#1f212b" d="M44,54c-5.514,0-10-4.486-10-10s4.486-10,10-10s10,4.486,10,10S49.514,54,44,54z M44,35	c-4.962,0-9,4.037-9,9s4.038,9,9,9s9-4.037,9-9S48.962,35,44,35z"/><rect width="2" height="5.658" x="53.5" y="51.671" fill="#1f212b" transform="rotate(-44.992 54.501 54.501)"/><path fill="#eba272" d="M66,68.5c-0.64,0-1.28-0.244-1.768-0.732l-9-9c-0.977-0.977-0.977-2.559,0-3.535	c0.976-0.977,2.56-0.977,3.535,0l9,9c0.977,0.977,0.977,2.559,0,3.535C67.28,68.256,66.64,68.5,66,68.5z"/><path fill="#1f212b" d="M66,69c-0.802,0-1.555-0.313-2.121-0.879l-9-9c-1.169-1.17-1.169-3.072,0-4.242	c1.132-1.133,3.11-1.133,4.242,0l9,9c1.169,1.17,1.169,3.072,0,4.242C67.555,68.688,66.802,69,66,69z M57,55	c-0.534,0-1.037,0.208-1.414,0.586c-0.78,0.779-0.78,2.049,0,2.828l9,9c0.755,0.756,2.073,0.756,2.828,0	c0.78-0.779,0.78-2.049,0-2.828l-9-9C58.037,55.208,57.534,55,57,55z"/><rect width="5.657" height="1" x="54.672" y="57" fill="#1f212b" transform="rotate(-45.001 57.5 57.501)"/></svg>